<?xml version="1.0" standalone="no"?>
<!DOCTYPE svg PUBLIC "-//W3C//DTD SVG 20010904//EN"
 "http://www.w3.org/TR/2001/REC-SVG-20010904/DTD/svg10.dtd">
<svg version="1.0" xmlns="http://www.w3.org/2000/svg"
 width="137.000000pt" height="155.000000pt" viewBox="0 0 137.000000 155.000000"
 preserveAspectRatio="xMidYMid meet">
<metadata>
Created by potrace 1.11, written by Peter Selinger 2001-2013
</metadata>
<g transform="translate(0.000000,155.000000) scale(0.100000,-0.100000)"
fill="#000000" stroke="none">
<path d="M967 1522 c-38 -42 -81 -189 -67 -227 8 -22 16 -25 59 -25 31 0 55 6
65 15 14 14 18 14 40 0 29 -19 76 -11 76 14 0 9 -18 35 -40 56 -35 35 -40 44
-40 86 0 78 -54 125 -93 81z"/>
<path d="M879 1240 c-76 -12 -173 -45 -237 -82 -94 -54 -167 -174 -204 -338
-5 -25 -13 -185 -16 -357 l-7 -311 -32 -47 c-38 -52 -39 -58 -17 -79 24 -25
67 -20 96 12 73 78 91 167 87 452 -4 346 -4 341 19 403 26 72 79 145 132 182
91 63 290 87 510 62 146 -17 163 -13 149 35 -5 18 -18 41 -29 53 -19 19 -34
20 -208 22 -103 1 -212 -3 -243 -7z"/>
<path d="M906 1098 c-9 -12 -16 -30 -16 -40 0 -15 -5 -14 -37 8 -41 27 -76 28
-81 2 -2 -11 18 -34 57 -64 l61 -47 0 -63 c0 -35 -4 -65 -8 -68 -4 -2 -51 25
-104 60 -100 67 -149 84 -156 51 -5 -27 13 -44 120 -114 54 -34 102 -71 107
-82 13 -23 -4 -90 -24 -98 -8 -3 -53 12 -100 32 -91 39 -137 43 -143 12 -6
-29 25 -54 102 -83 39 -15 75 -31 79 -35 11 -9 -42 -47 -117 -84 -62 -31 -73
-46 -62 -90 10 -41 39 -40 133 7 115 56 183 124 234 232 55 119 72 192 73 327
1 102 -1 119 -18 138 -26 29 -80 28 -100 -1z"/>
<path d="M33 448 c-39 -19 -37 -68 3 -87 14 -6 48 -11 77 -11 65 0 97 -19 168
-100 63 -73 84 -87 106 -69 25 21 7 69 -44 121 l-47 48 52 0 c49 0 52 1 52 26
0 20 -8 29 -43 44 -80 36 -273 52 -324 28z"/>
</g>
</svg>
