<svg xmlns="http://www.w3.org/2000/svg"  version="1.1" x="0px" y="0px" viewBox="0 0 48 60" enable-background="new 0 0 48 48" xml:space="preserve"><g><path d="M39,9.3V1c0-0.6-0.4-1-1-1c-0.6,0-1,0.4-1,1v8.3c0,3.4-1.7,6.5-4.6,8.3L24,22.8l-8.4-5.2c-2.9-1.8-4.6-4.9-4.6-8.3V1   c0-0.6-0.4-1-1-1C9.4,0,9,0.4,9,1v8.3c0,4.1,2.1,7.9,5.6,10l7.6,4.7l-7.6,4.7C11,30.8,9,34.6,9,38.7V47c0,0.6,0.4,1,1,1   c0.6,0,1-0.4,1-1v-8.3c0-3.4,1.7-6.5,4.6-8.3l8.4-5.2l8.4,5.2c2.9,1.8,4.6,4.9,4.6,8.3V47c0,0.6,0.4,1,1,1c0.6,0,1-0.4,1-1v-8.3   c0-4.1-2.1-7.9-5.6-10L25.9,24l7.6-4.7C37,17.2,39,13.4,39,9.3z"/><path d="M13.8,6.8h20.5c0.6,0,1-0.4,1-1c0-0.6-0.4-1-1-1H13.8c-0.6,0-1,0.4-1,1C12.8,6.3,13.2,6.8,13.8,6.8z"/><path d="M33.1,10.6c0-0.6-0.4-1-1-1H15.9c-0.6,0-1,0.4-1,1c0,0.6,0.4,1,1,1h16.1C32.6,11.6,33.1,11.2,33.1,10.6z"/><path d="M18.2,14.5c-0.6,0-1,0.4-1,1c0,0.6,0.4,1,1,1h11.6c0.6,0,1-0.4,1-1c0-0.6-0.4-1-1-1H18.2z"/><path d="M34.2,42.3H13.8c-0.6,0-1,0.4-1,1c0,0.6,0.4,1,1,1h20.5c0.6,0,1-0.4,1-1C35.2,42.8,34.8,42.3,34.2,42.3z"/><path d="M14.9,38.5c0,0.6,0.4,1,1,1h16.1c0.6,0,1-0.4,1-1c0-0.6-0.4-1-1-1H15.9C15.4,37.5,14.9,37.9,14.9,38.5z"/><path d="M29.8,34.6c0.6,0,1-0.4,1-1c0-0.6-0.4-1-1-1H18.2c-0.6,0-1,0.4-1,1c0,0.6,0.4,1,1,1H29.8z"/></g><text x="0" y="63" fill="#000000" font-size="5px" font-weight="bold" font-family="'Helvetica Neue', Helvetica, Arial-Unicode, Arial, Sans-serif">Created by Vectors Market</text><text x="0" y="68" fill="#000000" font-size="5px" font-weight="bold" font-family="'Helvetica Neue', Helvetica, Arial-Unicode, Arial, Sans-serif">from the Noun Project</text></svg>